<?xml version="1.0" encoding="UTF-8"?>
<svg width="85px" height="85px" viewBox="0 0 85 85" version="1.1" xmlns="http://www.w3.org/2000/svg" xmlns:xlink="http://www.w3.org/1999/xlink">
    <!-- Generator: Sketch 52.3 (67297) - http://www.bohemiancoding.com/sketch -->
    <title>Untitled</title>
    <desc>Created with Sketch.</desc>
    <g id="Page-1" stroke="none" stroke-width="1" fill="none" fill-rule="evenodd">
        <g id="2-layers" fill="#F5C506" fill-rule="nonzero">
            <g id="Group" opacity="0.5" transform="translate(3.000000, 2.000000)">
                <path d="M0.174,21.287 L18.954,20.574 L18.829,1.779 L26.847,9.448 L26.974,28.242 L8.193,28.955 L0.174,21.287 Z M12.344,32.925 L31.124,32.212 L31,13.418 L39.019,21.086 L39.145,39.881 L20.364,40.593 L12.344,32.925 Z M52.152,70.994 L52.025,52.199 L70.807,51.486 L78.827,59.155 L60.045,59.868 L60.171,78.662 L52.152,70.994 Z M39.982,59.355 L39.855,40.561 L58.637,39.848 L66.656,47.516 L47.875,48.23 L48,67.024 L39.982,59.355 Z M58.434,0.895 L59.147,19.675 L77.941,19.549 L70.273,27.569 L51.478,27.694 L50.766,8.914 L58.434,0.895 Z M46.796,13.065 L47.509,31.845 L66.303,31.719 L58.635,39.739 L39.84,39.865 L39.127,21.083 L46.796,13.065 Z M8.727,52.873 L27.521,52.746 L28.234,71.528 L20.566,79.547 L19.852,60.766 L1.059,60.892 L8.727,52.873 Z M20.365,40.703 L39.159,40.576 L39.873,59.358 L32.204,67.377 L31.49,48.595 L12.697,48.722 L20.365,40.703 Z" id="Shape"></path>
            </g>
            <path d="M0.992,55.996 L14.072,42.5 L0.992,29.004 L12.087,29.004 L25.17,42.5 L12.087,55.996 L0.992,55.996 Z M17.832,55.996 L30.911,42.5 L17.831,29.004 L28.926,29.004 L42.007,42.5 L28.927,55.996 L17.832,55.996 Z M72.912,55.996 L59.833,42.5 L72.913,29.004 L84.009,29.004 L70.928,42.5 L84.008,55.996 L72.912,55.996 Z M56.073,55.996 L42.993,42.5 L56.073,29.004 L67.17,29.004 L54.089,42.5 L67.169,55.996 L56.073,55.996 Z M29.004,0.992 L42.5,14.072 L55.996,0.992 L55.996,12.087 L42.499,25.168 L29.004,12.088 L29.004,0.992 Z M29.004,17.832 L42.5,30.911 L55.997,17.831 L55.997,28.926 L42.5,42.006 L29.005,28.926 L29.004,17.832 Z M29.004,72.912 L42.5,59.833 L55.997,72.913 L55.997,84.009 L42.5,70.929 L29.005,84.009 L29.004,72.912 Z M29.004,56.073 L42.5,42.992 L55.997,56.073 L55.997,67.168 L42.5,54.088 L29.005,67.168 L29.004,56.073 Z" id="Shape"></path>
        </g>
    </g>
</svg>